<?xml version="1.0" encoding="UTF-8"?>
<svg id="Capa_2" data-name="Capa 2" xmlns="http://www.w3.org/2000/svg" viewBox="0 0 73.1 64.97">
  <defs>
    <style>
      .cls-1 {
        fill: #221c43;
      }

      .cls-2 {
        fill: #c0282e;
      }
    </style>
  </defs>
  <path class="cls-1" d="M0,50.4c.52-1.14,1.4-1.52,2.64-1.46,1.9.08,3.81.04,5.71,0,.35,0,.75-.14,1.02-.36,1.74-1.37,3.45-2.77,5.16-4.17,2.93-2.4,6.28-3.59,10.07-3.59,6.64.01,13.28,0,19.92,0,2.54,0,4.4,2.02,4.19,4.47-.17,2.02-2.06,3.62-4.35,3.64-3.07.02-6.14,0-9.21,0-.26,0-.52,0-.78.01-.95.08-1.7.83-1.76,1.76-.06.93.57,1.79,1.49,2,.3.07.61.07.92.07,4.69,0,9.38.01,14.06-.02.44,0,.94-.17,1.29-.42,4.81-3.5,9.59-7.03,14.38-10.57,1.72-1.27,3.54-1.6,5.49-.66,3.47,1.69,3.85,6.2.71,8.53-5.05,3.74-10.11,7.45-15.17,11.18-.79.58-1.56,1.17-2.36,1.73-2.25,1.56-4.75,2.39-7.5,2.4-14.59.01-29.17,0-43.76.02-1.1,0-1.66-.64-2.17-1.44v-13.13Z"/>
  <path class="cls-2" d="M46.27,0c.25.06.5.14.75.19,5.73,1.23,9.07,7.42,7.17,13.25-.5,1.52-1.33,2.83-2.42,3.99-4.47,4.71-8.93,9.43-13.4,14.14-1.11,1.17-2.43,1.23-3.49.12-4.63-4.85-9.3-9.67-13.87-14.58-3.82-4.1-3.61-10.63.35-14.53,1.31-1.29,2.9-2.06,4.69-2.42C26.21.12,26.38.05,26.56,0,27.37,0,28.18,0,28.99,0c.08.04.16.1.25.11,2.61.41,4.72,1.68,6.42,3.68.24.29.5.56.77.86.47-.47.89-.89,1.3-1.32,1.46-1.54,3.2-2.61,5.29-3.08.37-.08.74-.17,1.1-.26.71,0,1.43,0,2.14,0Z"/>
</svg>