<?xml version="1.0" encoding="UTF-8"?>
<svg id="Capa_2" data-name="Capa 2" xmlns="http://www.w3.org/2000/svg" viewBox="0 0 63.23 64.12">
  <defs>
    <style>
      .cls-1 {
        fill: #ce861d;
      }
    </style>
  </defs>
  <path class="cls-1" d="M25.7,42.85c-.08-.18.09-.32.1-.48.32-.32.38-.71.36-1.15-.03-.75-.01-1.5-.01-2.25.36-.28.6.15.93.16.24.01.52.13.78.24.03.05.06.14.1.14.56.06,1.13.05,1.69,0,.04,0,.06-.09.1-.14.5,0,.98-.1,1.45-.22.6-.15,1.11-.04,1.62.27.16.1.35.13.53.14.07.29.31.19.46.16.34-.06.74.21,1.03-.16.54-.04,1.08-.07,1.52.35,0,2.72,0,5.44,0,8.15,0,.05-.02.11-.03.16-.26-.03-.38.07-.36.34.02.17,0,.34,0,.52-.37.52-.27,1.11-.3,1.69,0,1.05-.29,2.08-.26,3.13,0,.37,0,.74,0,1.11,0,.32,0,.65,0,.97,0,.15-.04.33.19.36h0c0,.32,0,.64,0,.96,0,.14-.05.32.17.36,0,.06.01.12.02.18,0,.67,0,1.34,0,2.01-.13.59-.16,1.19-.2,1.79-.27.34-.24.76-.36,1.15-.61.83-1.53.97-2.45,1.12-.58,0-1.16,0-1.74,0-.28,0-.57-.08-.82.11-.34-.07-.58-.3-.86-.48-.05-.27-.23-.38-.49-.39-.23,0-.44-.08-.66-.14-.28-.07-.65-.22-.91.12-.41.08-.81-.04-1.2-.09-.31-.04-.4-.33-.42-.64-.05-.71.11-1.4.09-2.1-.02-.62-.17-1.24-.07-1.86.02-.04.07-.08.07-.12,0-1.34,0-2.68,0-4.02,0-.04-.04-.08-.07-.12.33-1.02.56-2.06.67-3.13.11-.52.11-1.04,0-1.56-.09-.61-.34-1.18-.52-1.77-.02-.08-.07-.13,0-.2-.17-.45-.05-.91-.1-1.37-.02-.41.08-.82-.07-1.22.12-.7.12-1.39,0-2.08Z"/>
  <path class="cls-1" d="M14.18,14.09c-.22.28-.6.32-.85.56-.28.1-.57.2-.56.58,0,0,0,0,0,0-.44.05-.65.41-.49.84-.04.07-.09.14-.13.2-.03.01-.05.03-.04.07,0,0,0,0,0,0-.26-.05-.42.11-.43.32-.05.64-.49,1.01-.93,1.36-.14.11-.03.19-.06.28-.37.21-.74.42-1.12.62-1.07.55-1.52,1.52-1.8,2.6-.03.11-.07.2-.12.3-.31.39-.67.76-.55,1.33-.4.95-.84,1.89-.98,2.94-.09.04-.12.12-.16.21-.33.82-1.02,1.04-1.69.54-.12-.09-.21,0-.31-.01-.27-.21-.53-.43-.84-.57-.11-.37-.8-.58-1.32-.39-.14.02-.19-.05-.2-.18.05-.38-.36-.58-.36-.93,0-.58-.06-1.16.08-1.73-.03-.33.16-.6.34-.8.21-.23.35-.52.6-.71.4.08.86-.49.76-.94.21-.72.31-1.46.4-2.21.06-.5.36-.93.69-1.29.47-.52,1.02-.98,1.52-1.47.46-.46.41-1.15.71-1.69.39-.7.64-1.51,1.47-1.88.22-.1.39-.29.59-.44.43-.03.72-.29.69-.64.43-.62.56-1.37.91-2.02.1-.18.23-.32.38-.45.38.05.69-.02.77-.47.52-.4,1.17-.34,1.76-.46.55-.11.97-.32,1.37-.72.74-.74,1.38-1.59,2.34-2.08.4-.2.8-.45,1.28-.43.2,0,.33-.15.51-.18.38.1.92-.31,1.03-.8.42-.33.86-.64,1.27-.99.26-.22.54-.35.87-.39.47,0,.94,0,1.4,0,.13,0,.3.04.33-.17.47-.22.92-.46,1.33-.78.11.07.22.04.35.03.29-.03.6-.12.88.07-.29.59-.46,1.24-.83,1.8-.49.08-.39.46-.39.78-.12.24-.25.49-.37.73-.45.1-.4.45-.39.78-.13.24-.27.48-.4.72-.41.18-.48.57-.55.94-.16.08,0,.31-.18.39-.26.09-.47.24-.56.51-.15.42-.42.73-.72,1.05-.23.24-.7.26-.7.72-.73.46-1.52.8-2.35,1.02-.5-.05-.79.32-1.15.56-.26.17-.51.33-.56.67,0,0,0,0,0,0-.37,0-.65.11-.57.57,0,0,0,0,0,0-.43.24-.79.54-.97,1.02-.02.02-.05.02-.08.03-.41.08-.72.31-.94.66Z"/>
  <path class="cls-1" d="M51.44,15.96c-.33-.08-.39-.51-.75-.56-.16-.32-.34-.6-.76-.57,0,0,0,0,0,0-.13-.57-.74-.88-1.33-.67-.48-.37-.93-.74-1.29-1.28-.48-.72-.9-1.57-1.82-1.9-.11-.04-.19-.15-.28-.23.01-.13.1-.28-.16-.27-.12,0-.25,0-.36-.06-.42-.21-.85-.16-1.28-.05-.21-.23-.55-.27-.8-.35-.56-.17-.9-.59-1.29-.93-.34-.29-.67-.54-1.1-.61-.91-.15-.96-.91-1.14-1.57-.05-.18-.13-.33-.19-.49.19-.43.04-.75-.3-1.02-.34-.9-.69-1.8-.86-2.75-.02-.51-.02-1.03-.44-1.41-.18-.26.02-.28.2-.29.89-.07,1.62.23,2.15.96.03.04.07.06.1.09.01.64.5.26.77.36.98.08,1.9.31,2.61,1.06.06.07.14.13.12.24.05.4.33.61.66.77.31.2.6.42,1,.39,1.63-.11,2.69.79,3.53,2.06,0,.15,0,.28.12.42.46.59,1.07.76,1.78.72.13.02.27-.04.37.1,0,.13.02.22.16.29.72.37,1.45.72,1.84,1.51.08.16.23.34.45.38.19.28.38.56.57.83-.05.32.21.5.4.58.58.24,1.05.68,1.66.85.49.48.78,1.11.82,1.75.09,1.22.79,2.01,1.65,2.72.2.17.33.4.55.54.14.39.28.79.56,1.11.07.22.13.45.2.67-.06.28-.29.18-.46.19-.76.06-1.53-.11-2.29.08-.29.08-.57-.02-.85-.08-.49-.34-1-.21-1.52-.08-.14,0-.28,0-.42,0-.89,0-.91,0-1.13-.84-.15-.58-.49-1.06-.71-1.61,0-.49-.39-1-.77-1.04Z"/>
  <path class="cls-1" d="M36.34,29.93c.44.41.95.68,1.52.86.19.42.62.34.96.44,0,0,0,0,0,0,0,.14.05.21.19.2,0,0,0,0,0,0,0,.14.06.2.2.19.43.25.57.73.85,1.09.3.38.56.81,1.03,1.02,0,.15-.04.31.03.45.41-.15.85.13.9.58.02.18,0,.37.27.26,0,.42.22.86-.12,1.23-.46.5-1.09.76-1.73.92-.97.24-1.9.09-2.73-.47-.26-.17-.56.06-.79-.16.09-.19-.02-.21-.17-.21-.46,0-.91.01-1.37,0-.31-.01-.59.04-.82.27-.61.03-1.22.09-1.79-.18-.16-.42-.62-.56-1.23-.38-.93-.1-1.77.27-2.63.5-.54,0-1.08,0-1.62,0-.15-.01-.29,0-.43-.11-.78-.57-1.64-.53-2.5-.21-.39.15-.79.23-1.21.23-.12,0-.27,0-.36.05-.15.1-.25.2-.44.05-.2-.15-.08-.29-.05-.45,0-.05.01-.09.02-.14.09,0,.24,0,.23-.09-.05-.55.35-.47.67-.49.02,0,.04-.06.07-.11-.15-.1-.61.08-.35-.36.04-.09.08-.17.12-.26.5-.21.84-.58,1.09-1.04.1-.32.37-.49.61-.67.61-.45,1.31-.79,1.73-1.48.29-.47.61-.92.82-1.44.13-.01.28-.05.32-.17.29-.89,1.07-1.36,1.65-2,.16-.18.31-.35.36-.59-.04-.15.04-.28.11-.39.34-.55.19-1.23.47-1.79.07-.14.06-.32.19-.44.29.01.58-.06.86.09.35.45.88.64,1.34.92.39.24.82.41,1.25.58.6.24,1.01.75,1.14,1.39.11.58.43,1.03.69,1.53.03.04.06.08.09.12,0,0,0,0,0,0-.03.4.1.66.55.66Z"/>
  <path class="cls-1" d="M53.91,53.63c.05.43-.2.8-.21,1.22-.21.22-.46.41-.43.76-.04.03-.07.07-.11.1-.09.03-.2.03-.26.09-.24.25-.7.36-.6.85-.16.15-.31.31-.47.46-.85.21-1.09.46-1.14,1.14,0,0,0,0,0,0-.16-.04-.28.04-.36.16-.4.57-.95.95-1.57,1.25-.12.06-.33.05-.35.27-.24.14-.5.11-.77.11-.73-.02-1.43.12-2.08.47-.74.03-1.15.58-1.63,1.02.01.01.02.02.03.03-.85.39-1.75.39-2.66.37-.34,0-.68-.04-1.01.09-.19-.01-.37-.02-.56-.04-.12-.01-.26-.23-.36-.05-.12.21.1.29.25.37-.28.18-.49.14-.69-.14-.32-.45-.6-.91-.84-1.41-.07-.14-.15-.25-.23-.38-.19-.28-.25-.61,0-.9.18-.2.24-.43.26-.68.06,0,.15,0,.18-.02.28-.37.34-.82.46-1.25.05-.18-.1-.23-.26-.22-.1-.29-.19-.57-.29-.86.04-.67-.12-1.35.17-2.01.17-.37.34-.77.12-1.19-.05-.38.05-.77-.19-1.14-.09-.14-.07-.35.26-.3.44.07.9,0,1.34.11.06.02.12.05.18.06,1.1.09,2.19.02,3.29.05.15,0,.31-.04.45.07.37.29.55.25.89-.15.13,0,.25,0,.38,0,.05.06.11.09.19.05,0,0,0-.02.01-.03-.04-.01-.08-.03-.12-.04.43-.23.9-.05,1.36-.17.74-.21,1.49-.05,2.25.03.94.1,1.92.22,2.87-.1.7-.24,1.93.23,2.3.85.07.12.16.27.1.44-.48.12-.18.43-.17.67Z"/>
  <path class="cls-1" d="M12.67,51.72c-.24.28-.6.19-.89.31-1.02.42-2.08.54-3.18.45,0-.16-.04-.28-.23-.26-.43.04-.81-.1-1.16-.34-.11-.08-.24-.04-.35.04-.02,0-.04-.02-.04-.04.13-.23-.04-.21-.18-.23-.27-.18-.36-.51-.52-.77-.47-.74-.95-1.47-1.44-2.2-.04-.06-.03-.15-.05-.23-.05-.59-.45-1.02-.68-1.54-.1-.23-.11-.36.18-.37.14,0,.3.02.3-.2.04-.1.12-.09.2-.07,0,.15.04.35.22.23.31-.21.63-.12.95-.15.13-.01.3.04.33-.17.74-.02,1.44-.33,2.18-.28.58.22,1.13.53,1.79.51.13,0,.25.05.28-.13.64.04,1.19-.21,1.77-.44.52-.21,1.14-.43,1.73-.04.19.26.47.37.78.37.68,0,1.37,0,2.05,0,.28,0,.48-.09.57-.36,1.17-.38,2.2-.03,3.26.49.38.19.94.1,1.39.02.27-.05.57-.11.83-.22.07.08.16.08.26.08.45-.04.72.12.69.62,0,.15.05.27.19.34-.02.67.03,1.32.46,1.89.34.45.28,1.48-.11,1.95-.56.66-1.29.88-2,.67-1.33-.38-2.7-.47-4.05-.07-.37.11-.74.07-1.11.08-1.12.05-2.25-.07-3.37.07-.15-.39-.67-.39-1.03,0Z"/>
  <path class="cls-1" d="M46.14,42.77h-.04s-.03-.01-.03-.01c-.22-.4-.59-.49-1.23-.3-.82.02-1.65,0-2.44.26-.62.21-1.26.22-1.9.31-.36-.17-.74-.06-1.11-.07-.41,0-.6-.17-.6-.59.01-.74.03-1.48,0-2.21-.03-.47.11-.68.59-.6,1.44.71,2.72.37,3.92-.57.6-.1,1.04-.42,1.35-.94,0,0,0,0,0,0,.45-.03.81-.26,1.14-.54.89-.05,1.74.26,2.64.19.52-.04,1.02-.21,1.55-.21.67,0,1.29.14,1.92.37.98.37,1.97.72,3.05.58.25-.03.48-.05.71-.17.57-.29,1.21-.31,1.83-.38.39.32.82.18,1.24.1.8.06,1.59.14,2.39.18.72.04,1.31.66,1.07,1.51-.08.28-.13.56-.18.84-.03.03-.05.07-.08.1,0,.03-.01.05-.02.08-.24.15-.47.31-.09.57-.09.46-.19.92-.27,1.38-.08.47-.32.76-.76.97-.62.28-1.28.25-1.92.37-.04,0-.1-.06-.16-.09-.33-.16-.6-.52-1.03-.28-.69-.33-1.42-.38-2.16-.38-.16-.15-.36-.05-.54-.08-.28-.05-.47.21-.75.2-.63-.03-1.22-.2-1.79-.45-.13-.06-.21-.08-.33-.02-.71-.12-1.41-.33-2.15-.31-.49.01-.94.25-1.43.21-.8,0-1.6,0-2.39,0Z"/>
  <path class="cls-1" d="M1.16,43.14c-.09-.46-.18-.92-.28-1.37-.06-.25-.16-.5-.11-.77.05-.24-.08-.4-.17-.59.17-.5.04-1.02.07-1.53.25-.32.4-.73.85-.85.54,0,1.08,0,1.62,0,.5.09,1.01.19,1.51.28.5.17,1,.17,1.5,0,.44-.09.87-.19,1.31-.28.52,0,1.04,0,1.56,0,.18.07.36.14.54.21.05.07.12.08.19.08,0,0,0,0,0,0,0,.11-.03.23.11.27.77.24,1.55.32,2.34.13.31,0,.6-.17.92-.11.28,0,.56.01.85,0,.23-.01.48-.04.48-.36.58-.16,1.15-.17,1.7.07.08.2.18.35.45.3.22-.04.46-.01.69-.01.21,0,.43,0,.64,0,.5,0,1.04.12,1.43-.36.79-.39,1.52-.11,2.24.21.07.03.14.05.21.08.06.37.39.38.65.45.42.11.71.24.68.79-.05.88-.05,1.76,0,2.63.03.51-.26.64-.63.73-.18.04-.35.03-.32.28-.72.37-1.32-.06-1.98-.24-.66-.18-1.35-.35-2.05-.13-.25.08-.53-.06-.78.1-.45,0-.89-.02-1.34,0-.28.01-.58-.11-.84.1-.65-.03-1.2-.43-1.87-.43-.25,0-.51.16-.76.03-.72-.18-1.44-.04-2.17-.07-.32-.01-.65-.09-.96.07-.69-.08-1.37-.12-2.06,0-.42.08-.77.31-1.04.53-.35.29-.73.39-1.13.52-.69.04-1.4-.12-2.09.08-.48-.03-.97.13-1.43-.11-.17-.26-.15-.65-.55-.74Z"/>
  <path class="cls-1" d="M15.41,35.98c-.81.14-1.62.24-2.42.46-.48.13-.96.29-1.45.37-.8.13-1.48-.21-2.09-.7-.45-.36-.97-.41-1.48-.29-.56.14-1.14.25-1.71.32-.45.05-.94-.03-1.32-.3-.48-.35-1-.35-1.54-.34-.16,0-.31-.01-.47-.02-.33-.08-.67-.24-.93.13-.08.12-.19.07-.29.06-.25-.42-.7-.24-1.05-.35-.45-.42-.36-.99-.45-1.52.39-.29.35-.82-.09-1.32-.08-.6-.14-1.19-.13-1.8.01-.43.08-.82.39-1.14.17.01.25-.04.28-.23.05-.29.24-.45.51-.6.36-.21.75.02,1.08-.19.34-.11.53.19.73.33,1.26.87,2.64.74,4.04.63.34-.03.68-.06,1.02.03,1.01.25,2.02.55,3.09.42.55,0,1.1.02,1.65,0,.4-.01.81.1,1.2-.07.56.12,1.11.25,1.67.36.14.03.1.13.13.21.58,1.32,1.17,2.63,1.74,3.96.17.4-.11.68-.39.91-.17.14-.4.21-.61.31-.46-.11-.79.15-1.13.38Z"/>
  <path class="cls-1" d="M29.37,20.5c-.2.88-.73,1.61-1.07,2.42-.09.22-.23.44-.29.67-.11.45-.38.48-.73.34-.77-.32-1.56-.56-2.31-.94-.48-.25-1.04-.36-1.57-.51-.45-.13-.57-.28-.35-.69.34-.65.46-1.35.62-2.04.05-.19.06-.42,0-.6-.27-.79-.08-1.54.2-2.28.29-.76.44-1.53.41-2.35-.01-.33-.17-.61-.32-.85-.35-.56-.66-1.13-.83-1.76,0-.42,0-.84,0-1.26.39-.6.6-1.29.97-1.91.31-.52.52-1.13.83-1.67.34-.6.79-1.15,1.04-1.78.34-.85.96-1.53,1.3-2.37.02-.04.07-.06.1-.09.1.12.21.16.27-.01.1-.27.28-.5.29-.8.11-.02.23-.07.31.06.25.63.24,1.29.18,1.95-.01.15-.09.36.17.42.54.97.98,1.96.97,3.12,0,.38-.1.73-.27,1.01-.48.8-.48,1.61-.19,2.45.11.32.25.63.37.95.36.91.37,1.82.05,2.76-.44,1.26-.5,2.56-.16,3.87,0,.64,0,1.27,0,1.91Z"/>
  <path class="cls-1" d="M36.53,12.55c.15.72.43,1.4.68,2.08-.02.09-.09.2-.06.26.26.52.29,1.13.62,1.63.19.5.05,1.01.07,1.52-.4-.02-.56.27-.73.55-.13.07-.26.13-.38.2-.36.11-.81.06-.94.56-.56.32-1.12.64-1.68.96-.4.05-.79.13-.96.57-.16.2-.47.15-.62.38-.14-.02-.3.02-.34-.2-.03-.19-.17-.31-.35-.37-.22-.79-.43-1.57-.65-2.36.11-.57.11-1.13,0-1.7.11-.64.29-1.26.54-1.86.45-1.06.01-2.05-.25-3.06-.21-.8-.37-1.59-.24-2.44.15-.92.62-1.78.5-2.75-.02-.19-.06-.36-.13-.53-.47-1.17-.77-2.37-.53-3.65.07-.38.51-.33.65-.62.44-.06.9-.11,1.04-.66.14-.32.56-.28.74-.56.32.06.64-.37.96,0,0,.06.01.12.02.18-.04.38.05.71.36.96.45,1.1.73,2.25,1.08,3.38.36,1.18.91,2.31,1.03,3.56.03.3.05.62-.04.89-.19.53-.29,1.08-.44,1.61-.21.46-.08.93-.07,1.4,0,.03.09.06.14.09Z"/>
  <path class="cls-1" d="M37.29,20.88c.34-.11.59-.37.87-.58.56-.42,1.19-.47,1.73-.07.86.64,1.4,1.5,1.92,2.42.52.92,1.26,1.71,2.38,2,.64.17,1.16.58,1.59,1.06.59.66,1.15,1.34,1.68,2.04.33.44.37.97.21,1.49-.1.34-.19.68-.38.99-.35.35-.41.78-.36,1.24-.13.37-.26.74-.38,1.1-.33.18-.57.44-.76.74-1.25.2-2.24-.28-3.16-1.09-.58-.51-1.08-1.04-1.31-1.79-.05-.15-.19-.29-.33-.38-.55-.37-1.05-.8-1.77-.9-.5-.07-1.01-.29-1.36-.73.02-.41-.25-.59-.58-.73-.15-.29-.3-.58-.44-.87.1-.08.1-.2.07-.3-.17-.5-.36-1-.74-1.38-.25-.26-.43-.62-.84-.68-.25-.36-.69-.45-1.02-.7-.18-.14-.36-.32-.61-.41-.29-.11-.07-.29.07-.4.53-.42,1.18-.63,1.74-1,.27-.18.56-.35.84-.52.4-.04.77-.14.96-.54Z"/>
  <path class="cls-1" d="M38.63,11.53c-.05-.32.09-.49.4-.48.72.03,1.45-.14,2.14.26.33.18.61.41.79.7.32.49.8.65,1.29.73,1.73.28,2.78,1.31,3.32,2.92.21.64.69.84,1.29.88.43.15.73.58,1.24.55.62.51,1,1.17,1.34,1.89.3.63.54,1.26.74,1.92.23.75.02,1.48-.03,2.21-.06.93-.17,1.85-.17,2.79,0,.53-.17.68-.69.52-.41-.12-.78-.34-1.11-.61-.14-.34-.32-.64-.76-.59-.45-.32-.8-.75-1.17-1.15-.53-.57-1.09-1.05-1.9-1.25-.64-.16-1.21-.59-1.58-1.19-.37-.6-.74-1.19-1.05-1.84-.27-.57-.72-1.09-1.29-1.46-.48-.32-.98-.65-1.27-1.16-.27-.48-.52-1.02-.5-1.59.04-.79-.28-1.5-.42-2.25-.03-.18-.22-.32-.34-.48.07,0,.19.04.21,0,.06-.09-.06-.11-.1-.17-.05-.09-.13-.13-.23-.12,0,0,0,0,0,0-.05-.35.16-.74-.17-1.04Z"/>
  <path class="cls-1" d="M48.43,49.08c-.16,0-.32.03-.47.01-.8-.12-1.49.12-2.1.64-.17.14-.38.2-.59.23-.96.13-1.92.14-2.88-.03-.02-.14-.11-.17-.23-.17-.16,0-.31,0-.47,0-1.09,0-2.19,0-3.28,0-.18,0-.49-.02-.31-.27.24-.33.09-.65.13-.96.34-.69.31-1.43.28-2.17-.01-.28.16-.48.36-.54.63-.2,1.29-.28,1.96-.19.02,0,.04.04.06.07.54.14,1.08.24,1.6-.07.38-.07.75-.14,1.13-.21.54,0,1.08,0,1.63,0,.4,0,.81,0,1.21,0,.26,0,.52.02.78,0,.16-.01.39.1.45-.17.38-.1.75-.25,1.14-.29.24-.03.44-.09.65-.18.57.13,1.14.13,1.71,0,1.41.88,2.94,1.15,4.55.8.59-.13,1.12,0,1.68.11.28.06.67-.02.81.21.13.22.04.58.04.87,0,.08,0,.16,0,.23.03.6-.11,1.21.08,1.81-.21,1.07-.56,1.58-1.69,1.8-.93.18-1.72-.03-2.45-.57-.38-.28-.84-.42-1.24-.67-.03-.05-.05-.15-.08-.15-.48-.04-.96-.12-1.42.05-.49.18-.99.16-1.46.03-.46-.12-.91-.27-1.38-.36-.13-.02-.17.02-.19.13Z"/>
  <path class="cls-1" d="M50.71,28.79c.78.49,1.48,1.13,2.42,1.36.24.06.47.08.69.05,1.28-.17,2.54-.1,3.81.08.68.1,1.39.09,2.03-.31.19-.12.4-.24.64-.24.28,0,.56,0,.83,0,.1,0,.24-.05.27.1.06.35.31.27.54.26.03.04.06.07.09.11,0,.36,0,.71,0,1.07,0,.15-.03.33.2.34.29.49.56.98.87,1.46.16.26.18.5.07.78-.24.63-.51,1.25-.95,1.77-.43.5-1.06.51-1.58.39-.59-.14-1.2-.2-1.8-.47-.67-.3-1.47-.45-2.27-.09-.33.15-.75.23-1.13.31-.51.04-1.02-.09-1.53.07-.56-.2-1.17-.25-1.7-.56,0-.26-.16-.46-.38-.44-.44.05-.96-.27-1.31.24-.27.02-.54.04-.8.17-.46.24-.94.13-1.39-.08-.13-.28-.25-.55-.38-.83.17-.44.34-.88.5-1.32.14.06.31.18.35-.08.03-.18.17-.34.16-.46-.04-.29.31-.49.12-.78.16-.36.38-.71.46-1.08.09-.42.33-.77.42-1.18.2.09.45.19.4-.16-.04-.33.14-.4.35-.5Z"/>
  <path class="cls-1" d="M16.82,60.22c-.49-.11-.86-.45-1.29-.68-.32-.17-.33-.54-.46-.83-.28-.58-.8-.75-1.37-.86-.02-.16.05-.34-.09-.52-.19.22-.45.14-.69.17-.46-.22-.75-.58-.93-1.04-.01-.17.02-.36-.04-.51-.26-.59-.21-1.17.03-1.75.19-.15.44-.17.65-.19,1.28-.13,2.57-.14,3.85-.09.53.02,1.09.12,1.54.42.8.52,1.7.56,2.58.59.87.03,1.65.25,2.45.56.66.26.77.8.93,1.36.32,1.11.27,2.27.33,3.39.04.68.08,1.37.11,2.06.01.33-.25.58-.64.58-.35,0-.69-.01-1.04-.02-.07-.26-.31-.24-.49-.26-.26-.03-.53,0-.8-.02-.23-.02-.43-.28-.69-.08-.1-.02-.24.05-.28-.11,0-.13-.07-.19-.2-.17,0,0,0,0,0,0,.01-.15-.05-.21-.2-.18l.03-.02s-.02.02-.02.02c.03-.24-.13-.22-.28-.2-.49-.38-1.16-.45-1.58-.94,0-.17.04-.42-.18-.42-.32,0-.52-.24-.8-.29-.15-.03-.29-.14-.43.01Z"/>
  <path class="cls-1" d="M20.4,20.95c-.65.23-1.31.56-2,.37-.57-.15-1.13-.34-1.71-.49-.05-.23-.25-.15-.38-.15-.69,0-1.37,0-2.06,0-.29-.09-.59-.18-.74-.49.06-.51-.5-.8-.46-1.3.11-.52.24-.99.74-1.34.72-.51,1.61-.72,2.28-1.32.13-.02.28-.03.2-.23,0,0,.03-.02.03-.02.11.04.26.2.31.03.13-.42.42-.8.4-1.27-.04-.59.35-.99.73-1.32.73-.63,1.64-.75,2.57-.67.27.02.55-.19.79.01.42.35.78.76,1.05,1.24.14.24.02.54-.14.74-.57.69-.67,1.53-.8,2.36-.16.66-.05,1.33-.07,2-.01.39-.11.75-.24,1.12-.11.32-.52.36-.52.72Z"/>
  <path class="cls-1" d="M53.72,21.63c1.24,0,2.47.01,3.71.02.14.12.3.06.45.06.41,0,.81,0,1.22,0,.55,0,.91.38,1.33.65.64.65,1.16,1.39,1.44,2.26.4,1.22.13,1.85-1.11,2.27-.65.22-1.25.53-1.86.83-.74.36-1.55.55-2.36.14-.22-.28-1.77-.3-2.06-.03-.45,0-.91,0-1.36.02-.21,0-.26-.06-.26-.27.01-1.01.1-2.01.18-3.01.06-.73.02-1.47.03-2.2.26-.2.66-.3.65-.74Z"/>
  <path class="cls-1" d="M19.37,24.67c-.3.29-.51.65-.79.95-.5.53-1.2.73-1.75,1.15-.05.04-.08.09-.13.13-.5,0-.66.32-.73.74-.5.24-1.01.11-1.51,0-.27-.4-1.71-.54-2.06-.21,0,0,0,.03,0,.04-.41.24-.88.23-1.31.37-.54.03-1.09-.1-1.62.07-.43-.17-.93-.19-1.23-.62-.03-.37-.06-.79-.13-1.11-.13-.58.17-.87.46-1.13.27-.23.38-.47.42-.79.17-.08,0-.31.17-.39.48-.23.54-.47.2-.76.08-.31.12-.63.11-.96,0-.37.15-.59.57-.54.41.05.83-.11,1.23.09.47.24.95.46,1.49.49,1.23.74,2.61.82,3.98.95.02.08.05.14.14.16.77.16,1.54.25,2.32.19,0,0,0,0,0,0,.28.35.15.77.19,1.17Z"/>
  <path class="cls-1" d="M24.09,30.32c-.24.56-.74.83-1.22,1.12-.6,0-.88.23-.78.66,0,.12-.1.08-.16.1-.27.08-.63.59-.59.85-.24.22-.49.44-.73.65-.42.14-.84.44-1.27.01-.08-.04-.06-.13-.08-.19.05-.12.13-.21.04-.38-.14-.28-.25-.58-.37-.86-.1-.24.04-.68-.4-.74-.51-.54-.59-1.3-.95-1.92-.07-.12-.03-.33.15-.52.53-.57.91-1.31,1.68-1.61.36-.14.65-.36.94-.6.51-.42.71-1.02.92-1.6.45-.3.37-.75.34-1.18-.02-.42.31-.33.48-.26.92.37,1.83.78,2.75,1.18.18.5.6.34.96.36.18.07.37.14.55.21.24.28.54.42.92.35,0,0,.03,0,.03,0,0,.19.04.38-.24.42-.09.01-.28.08-.2.27-.29.37-.76.47-1.1.75-.44.35-.8.76-1.1,1.22-.08.01-.12.06-.17.13-.3.42-.11.94-.29,1.38,0,.03-.02.06-.02.1-.02.03-.05.07-.07.1Z"/>
  <path class="cls-1" d="M22.2,43.42c-.03-.25.14-.24.32-.28.37-.09.66-.22.63-.73-.05-.88-.05-1.76,0-2.63.03-.54-.26-.68-.68-.79-.26-.07-.59-.08-.65-.45.27.11.53.23.8.34.7.27.7.27.7,1.02,0,.83-.03,1.66.01,2.49.02.44-.1.71-.52.84-.2.06-.38.19-.6.2Z"/>
  <path class="cls-1" d="M38.23,48.52c-.05.32.1.63-.13.96-.18.24.13.27.31.27,1.09,0,2.19,0,3.28,0,.16,0,.31,0,.47,0,.12,0,.21.03.23.17-.73,0-1.46.06-2.2-.06-.68-.11-1.37.06-2.06.08-.23,0-.32-.07-.27-.3.08-.39.18-.77.37-1.13Z"/>
  <path class="cls-1" d="M39.38,39.55c-.48-.08-.61.13-.59.6.04.74.02,1.47,0,2.21,0,.42.19.59.6.59.37,0,.75-.1,1.11.07-.41.04-.83.09-1.24.11-.42.02-.65-.22-.65-.64.02-.96.05-1.93.07-2.89,0-.21.05-.38.29-.22.13.09.33-.04.41.15Z"/>
  <path class="cls-1" d="M48.43,49.08c.02-.11.07-.15.19-.13.47.09.92.24,1.38.36.47.12.97.14,1.46-.03.47-.17.95-.09,1.42-.05.03,0,.05.1.08.15-.67-.02-1.32.08-1.98.16-.86.11-1.73-.12-2.55-.46Z"/>
  <path class="cls-1" d="M8.98,24.27c-.04.32-.16.55-.42.79-.3.26-.6.55-.46,1.13.07.32.1.73.13,1.11-.33-.34-.55-.72-.57-1.21-.01-.4.3-.58.49-.84.25-.35.55-.65.84-.97Z"/>
  <path class="cls-1" d="M44.75,51.94c-.34.4-.52.43-.89.15-.14-.11-.3-.06-.45-.07-1.1-.03-2.19.04-3.29-.05-.06,0-.12-.04-.18-.06.52-.13,1.05-.05,1.58-.05,1.08,0,2.15.04,3.23.07Z"/>
  <path class="cls-1" d="M26.15,38.98c0,.75-.02,1.5.01,2.25.02.44-.05.83-.36,1.15-.03-1.03.15-2.06.18-3.09,0-.1.11-.2.17-.31Z"/>
  <path class="cls-1" d="M36.36,48.07c0-2.72,0-5.44,0-8.15.17.11.09.29.09.43,0,2.43,0,4.85,0,7.28,0,.15.04.32-.09.44Z"/>
  <path class="cls-1" d="M52.11,42.87c.11-.07.2-.04.33.02.57.26,1.16.42,1.79.45.28.01.47-.24.75-.2.18.03.37-.07.54.08-1.19.37-2.35.56-3.41-.35Z"/>
  <path class="cls-1" d="M25.7,54.18s.07.08.07.12c0,1.34,0,2.68,0,4.02,0,.04-.05.08-.07.12-.16-1.19-.1-2.39-.12-3.58,0-.24.12-.44.13-.67Z"/>
  <path class="cls-1" d="M38.54,53.24c.22.42.04.82-.12,1.19-.29.66-.14,1.34-.17,2.01-.3-.24-.28-.63-.26-.92.03-.79.29-1.54.56-2.29Z"/>
  <path class="cls-1" d="M53.16,10.3c-.22-.04-.37-.21-.45-.38-.39-.79-1.12-1.14-1.84-1.51-.15-.07-.17-.16-.16-.29.65.16,1.13.59,1.61,1.02.37.32.66.71.85,1.16Z"/>
  <path class="cls-1" d="M3.96,26.82c.1.02.19-.08.31.01.67.5,1.37.28,1.69-.54.04-.09.07-.17.16-.21-.11.33.05.76-.36.99-.64.36-1.3.53-1.81-.25Z"/>
  <path class="cls-1" d="M20.78,9.56c0-.46.47-.48.7-.72.3-.32.57-.63.72-1.05.09-.27.31-.41.56-.51-.31.92-1.04,1.53-1.68,2.21-.06.06-.2.05-.31.07Z"/>
  <path class="cls-1" d="M29.63,27.27c-.05.24-.2.41-.36.59-.58.64-1.36,1.11-1.65,2-.04.12-.19.16-.32.17.25-.73.77-1.28,1.33-1.76.36-.31.58-.74,1-.99Z"/>
  <path class="cls-1" d="M35.32,24.45c.41.07.59.43.84.68.38.38.57.88.74,1.38.04.1.03.22-.07.3-.36-.88-.84-1.68-1.52-2.36Z"/>
  <path class="cls-1" d="M1.32,23.04c-.14.57-.08,1.15-.08,1.73,0,.35.42.55.36.93-.77-.57-.86-1.93-.28-2.65Z"/>
  <path class="cls-1" d="M11.99,54.19c-.24.58-.29,1.16-.03,1.75.06.15.03.34.04.51-.45-.62-.5-1.34-.46-2.07.01-.2.26-.22.45-.19Z"/>
  <path class="cls-1" d="M56.83,19.62c.76-.18,1.53-.02,2.29-.08.17-.01.4.09.46-.19.14.42.05.56-.43.47-.77-.14-1.55-.05-2.32-.21Z"/>
  <path class="cls-1" d="M17.28,45.8c-.09.27-.29.37-.57.36-.68-.01-1.37,0-2.05,0-.31,0-.59-.11-.78-.37,1.13.42,2.27.3,3.4.01Z"/>
  <path class="cls-1" d="M4.44,46.34c0,.21-.16.19-.3.2-.29.02-.28.15-.18.37.22.51.62.95.68,1.54-.47-.5-.65-1.17-.99-1.74-.11-.19.1-.33.29-.36.17-.03.34,0,.51,0Z"/>
  <path class="cls-1" d="M20.4,20.95c0-.36.41-.4.52-.72.13-.37.22-.73.24-1.12.02-.67-.09-1.34.07-2-.05,1,.09,2.01-.08,3-.07.42-.26.76-.74.84Z"/>
  <path class="cls-1" d="M48.43,59.93c.01-.22.22-.21.35-.27.62-.3,1.17-.68,1.57-1.25.08-.12.2-.2.36-.16-.46.7-1.07,1.22-1.83,1.57-.14.06-.28.15-.44.11Z"/>
  <path class="cls-1" d="M35.41,53.92c-.03-1.05.25-2.08.26-3.13.21,1.01.12,2-.17,2.98-.02.05-.06.1-.09.15Z"/>
  <path class="cls-1" d="M50.52,35.1c.35-.51.87-.2,1.31-.24.21-.02.38.18.38.44-.55-.15-1.12-.18-1.69-.19Z"/>
  <path class="cls-1" d="M2.27,28.52c-.33.21-.72-.02-1.08.19-.27.16-.46.32-.51.6-.03.18-.12.24-.28.23.08-1.04.88-1.3,1.87-1.02Z"/>
  <path class="cls-1" d="M10.68,18.3c.03-.09-.08-.17.06-.28.45-.35.89-.71.93-1.36.02-.21.17-.37.43-.32-.28.79-.71,1.48-1.42,1.95Z"/>
  <path class="cls-1" d="M12.39,27.49s0-.04,0-.04c.36-.34,1.8-.19,2.06.21-.69-.07-1.37-.26-2.07-.16Z"/>
  <path class="cls-1" d="M34.56,36.61c.23-.23.5-.28.82-.27.45.02.91,0,1.37,0,.15,0,.26.02.17.21-.58,0-1.16,0-1.73-.03-.22-.01-.38.34-.62.09Z"/>
  <path class="cls-1" d="M60.43,22.37c-.42-.27-.78-.66-1.33-.65-.41,0-.81,0-1.22,0-.15,0-.31.05-.45-.06.66,0,1.32.02,1.98-.02.56-.03.85.26,1.03.74Z"/>
  <path class="cls-1" d="M20.77,62.5c.26-.2.46.06.69.08.27.02.53-.01.8.02.19.02.42,0,.49.26-.59.04-1.16-.06-1.73-.17-.11-.02-.21-.06-.25-.18Z"/>
  <path class="cls-1" d="M30.22,64.02c.25-.19.54-.1.82-.11.58-.01,1.16,0,1.74,0-.84.32-1.7.21-2.56.11Z"/>
  <path class="cls-1" d="M25.88,1.14c-.28-.19-.59-.09-.88-.07-.13.01-.24.04-.35-.03.44-.38.99-.26,1.55-.4-.1.24-.09.45-.32.5Z"/>
  <path class="cls-1" d="M55.79,12.56c-.61-.17-1.09-.61-1.66-.85-.19-.08-.45-.26-.4-.58.3.4.75.58,1.18.77.34.15.65.35.88.65Z"/>
  <path class="cls-1" d="M16.73,11.82c.05-.34.29-.5.56-.67.36-.24.65-.61,1.15-.56-.04.24-.27.24-.42.33-.46.25-.85.6-1.28.9Z"/>
  <path class="cls-1" d="M27.3,63.14c.26-.34.63-.19.91-.12.22.05.43.13.66.14.26,0,.44.12.49.39-.67-.23-1.35-.38-2.06-.4Z"/>
  <path class="cls-1" d="M38.53,57.3c.16,0,.31.04.26.22-.12.43-.17.88-.46,1.25-.03.03-.12.02-.18.02.08-.51.38-.96.37-1.5Z"/>
  <path class="cls-1" d="M18.53,31.55c.44.07.3.51.4.74.11.28.23.59.37.86.09.17,0,.26-.04.38-.28-.65-.67-1.25-.72-1.98Z"/>
  <path class="cls-1" d="M13.99,29.85c-.39.17-.8.05-1.2.07-.55.02-1.1,0-1.65,0,.69-.19,1.4-.25,2.11-.15.25.03.5.02.74.08Z"/>
  <path class="cls-1" d="M50.71,58.26c.05-.69.29-.93,1.14-1.14-.34.42-.73.79-1.14,1.14Z"/>
  <path class="cls-1" d="M28.6,4.44c-.26-.05-.18-.27-.17-.42.05-.66.07-1.32-.18-1.95.31.15.35.46.36.74.02.54,0,1.09,0,1.63Z"/>
  <path class="cls-1" d="M19.18,23.5c-.78.06-1.56-.03-2.32-.19-.09-.02-.12-.08-.14-.16.81.19,1.67.05,2.46.36Z"/>
  <path class="cls-1" d="M54.48,27.84c.3-.27,1.84-.25,2.06.03-.69-.01-1.37-.02-2.06-.03Z"/>
  <path class="cls-1" d="M42.28,35.02c-.28.1-.25-.08-.27-.26-.05-.45-.49-.73-.9-.58-.07-.15-.02-.3-.03-.45.19.09.39.16.58.26.43.21.5.64.62,1.04Z"/>
  <path class="cls-1" d="M16.82,60.22c.14-.15.28-.04.43-.01.28.06.48.3.8.29.22,0,.17.25.18.42-.5-.17-.95-.43-1.41-.69Z"/>
  <path class="cls-1" d="M48.61,14.17c.58-.22,1.2.1,1.33.67-.46-.18-.85-.52-1.33-.67Z"/>
  <path class="cls-1" d="M46.14,42.77c.8,0,1.6,0,2.39,0-.8.25-1.6.32-2.39,0Z"/>
  <path class="cls-1" d="M.13,32.48c.44.5.48,1.03.09,1.32-.19-.43-.1-.88-.09-1.32Z"/>
  <path class="cls-1" d="M50.33,8.02c-.71.05-1.32-.13-1.78-.72-.11-.14-.13-.27-.12-.42.37.81,1.21.85,1.9,1.14Z"/>
  <path class="cls-1" d="M44,61.56s-.02-.02-.03-.03c.48-.44.89-.99,1.63-1.02-.57.3-.97.84-1.6,1.05Z"/>
  <path class="cls-1" d="M12.2,38.72c-.79.19-1.57.11-2.34-.13-.14-.04-.11-.17-.11-.27.79.33,1.61.45,2.46.4Z"/>
  <path class="cls-1" d="M13.05,18.9c-.04.5.51.79.46,1.3-.38-.14-.46-.52-.64-.81-.1-.17-.04-.38.18-.48Z"/>
  <path class="cls-1" d="M22.93,34.91c-.25.44.2.26.35.36-.03.05-.05.1-.07.11-.32.03-.72-.06-.67.49,0,.1-.14.09-.23.09-.07-.52.23-.82.63-1.06Z"/>
  <path class="cls-1" d="M15.2,43.24c.26-.2.56-.08.84-.1.45-.02.89,0,1.34,0-.72.23-1.45.27-2.18.1Z"/>
  <path class="cls-1" d="M25.7,42.85c.13.69.13,1.39,0,2.08-.15-.69-.22-1.39,0-2.08Z"/>
  <path class="cls-1" d="M6.86,51.91c.11-.08.23-.11.35-.04.35.24.73.38,1.16.34.19-.02.24.1.23.26-.61-.1-1.24-.14-1.74-.56Z"/>
  <path class="cls-1" d="M43.43,10.37c.43-.11.86-.16,1.28.05.1.05.24.06.36.06.25-.01.17.14.16.27-.6-.13-1.2-.26-1.79-.38Z"/>
  <path class="cls-1" d="M49.07,31.72c.19.29-.16.5-.12.78.02.13-.13.29-.16.46-.04.26-.21.13-.35.08.22-.44.33-.93.63-1.33Z"/>
  <path class="cls-1" d="M10.39,46.27c-.03.18-.15.13-.28.13-.66.02-1.21-.29-1.79-.51.32-.05.63-.04.9.16.36.27.77.18,1.17.22Z"/>
  <path class="cls-1" d="M23.9,47.12c-.14-.07-.2-.19-.19-.34.03-.5-.24-.66-.69-.62-.09,0-.19,0-.26-.08.78-.15,1.09.04,1.22.74.02.1.04.22-.08.29Z"/>
  <path class="cls-1" d="M19.45,3.37c-.11.49-.65.9-1.03.8.33-.28.63-.62,1.03-.8Z"/>
  <path class="cls-1" d="M61.94,30.11c-.22,0-.48.08-.54-.26-.03-.16-.17-.1-.27-.1-.28,0-.56,0-.83,0,.7-.34,1.18-.24,1.64.37Z"/>
  <path class="cls-1" d="M23.32,1.82c-.03.21-.2.17-.33.17-.47,0-.94,0-1.4,0,.56-.3,1.16-.09,1.73-.16Z"/>
  <path class="cls-1" d="M12.67,51.72c.36-.39.88-.39,1.03,0-.34-.08-.69.23-1.03,0Z"/>
  <path class="cls-1" d="M9.45,42.84c.31-.16.64-.08.96-.07.72.02,1.45-.11,2.17.07-1.04.05-2.08.04-3.12,0Z"/>
  <path class="cls-1" d="M37.77,16.52c-.34-.49-.37-1.1-.62-1.63-.03-.06.04-.18.06-.26.29.6.47,1.23.56,1.89Z"/>
  <path class="cls-1" d="M44.65,38.03c-.31.52-.75.85-1.35.94.44-.33.84-.72,1.35-.94Z"/>
  <path class="cls-1" d="M50.71,28.79c-.21.1-.4.18-.35.5.05.35-.2.26-.4.16.06-.15.12-.31.17-.46.1-.34.3-.4.58-.2Z"/>
  <path class="cls-1" d="M1.8,25.87c.52-.19,1.21.02,1.32.39-.42-.18-.9-.17-1.32-.39Z"/>
  <path class="cls-1" d="M17.02,14.74c.03.47-.27.85-.4,1.27-.05.17-.21.01-.31-.03.19-.28.44-.54.47-.9.01-.16.12-.26.24-.34Z"/>
  <path class="cls-1" d="M54.47,19.46c.51-.13,1.03-.26,1.52.08-.5-.05-1.02.11-1.52-.08Z"/>
  <path class="cls-1" d="M53.72,21.63c0,.44-.39.53-.65.74.09-.36.06-.82.65-.74Z"/>
  <path class="cls-1" d="M7.1,23.15c-.12-.57.24-.94.55-1.33.02.53-.3.91-.55,1.33Z"/>
  <path class="cls-1" d="M19.37,24.67c-.04-.39.09-.81-.19-1.17.59.25.67.72.19,1.17Z"/>
  <path class="cls-1" d="M3.03,20.59c.1.45-.36,1.02-.76.94.36-.22.5-.64.76-.94Z"/>
  <path class="cls-1" d="M37.3,1.24c.42.39.42.9.44,1.41-.25-.44-.38-.92-.44-1.41Z"/>
  <path class="cls-1" d="M52.31,56.66c-.1-.49.35-.6.6-.85.06-.06.17-.06.26-.09-.16.42-.57.63-.85.94Z"/>
  <path class="cls-1" d="M31.19,16.62c.11.57.11,1.13,0,1.7-.05-.41-.17-.81-.13-1.23.02-.17.02-.33.13-.48Z"/>
  <path class="cls-1" d="M29.37,20.5c0-.64,0-1.27,0-1.91.2.64.3,1.27,0,1.91Z"/>
  <path class="cls-1" d="M29.74,39.38c-.03.05-.06.14-.1.14-.56.05-1.13.06-1.69,0-.04,0-.07-.09-.1-.14.63.14,1.26.05,1.88,0Z"/>
  <path class="cls-1" d="M.67,38.88c-.03.51.1,1.02-.07,1.53-.15-.52-.23-1.03.07-1.53Z"/>
  <path class="cls-1" d="M44.84,42.46c.64-.2,1.01-.11,1.23.3-.47.13-.78-.35-1.23-.3Z"/>
  <path class="cls-1" d="M14.45,38.24c0,.33-.25.35-.48.36-.28.02-.56,0-.85,0,.42-.21.88-.26,1.33-.37Z"/>
  <path class="cls-1" d="M51.44,15.96c.38.04.76.56.77,1.04-.26-.35-.51-.7-.77-1.04Z"/>
  <path class="cls-1" d="M24.14,33.61c-.25.46-.59.83-1.09,1.04.33-.39.62-.81,1.09-1.04Z"/>
  <path class="cls-1" d="M19.33,33.72c.43.43.85.13,1.27-.01-.15.33-.45.44-.76.47-.28.02-.43-.2-.51-.45Z"/>
  <path class="cls-1" d="M15.97,27.65c.07-.42.24-.74.73-.74-.17.32-.35.63-.73.74Z"/>
  <path class="cls-1" d="M31.53,36.04c.61-.18,1.07-.04,1.23.38-.41-.13-.82-.26-1.23-.38Z"/>
  <path class="cls-1" d="M9.45,27.92c.54-.16,1.08-.03,1.62-.07-.53.31-1.08.2-1.62.07Z"/>
  <path class="cls-1" d="M25.77,46.16c.04.46-.08.92.1,1.37-.35-.28-.4-.9-.1-1.37Z"/>
  <path class="cls-1" d="M6.14,46.17c-.03.21-.19.16-.33.17-.32.03-.64-.06-.95.15-.18.12-.22-.07-.22-.23.5-.03,1,0,1.5-.1Z"/>
  <path class="cls-1" d="M47.94,34.36c.13.28.25.55.38.83-.58-.14-.68-.36-.38-.83Z"/>
  <path class="cls-1" d="M27.28,36.54c.54,0,1.08,0,1.62,0-.54.24-1.08.31-1.62,0Z"/>
  <path class="cls-1" d="M14.25,20.68c.69,0,1.37,0,2.06,0,.14,0,.33-.08.38.15-.62,0-1.25,0-1.87-.02-.2,0-.41.03-.57-.13Z"/>
  <path class="cls-1" d="M11.15,8.03c-.08.45-.39.51-.77.47.22-.21.38-.52.77-.47Z"/>
  <path class="cls-1" d="M49.1,17.09c-.51.03-.81-.4-1.24-.55.49,0,.92.16,1.24.55Z"/>
  <path class="cls-1" d="M26.85,26.63c-.07-.19.11-.26.2-.27.28-.04.24-.23.24-.42.14.04.34.06.36.21.03.18-.19.22-.31.29-.15.08-.29.24-.49.19Z"/>
  <path class="cls-1" d="M15.2,13.4c.18-.47.53-.78.97-1.02-.19.47-.59.73-.97,1.02Z"/>
  <path class="cls-1" d="M39.66,62.3c-.15-.08-.37-.15-.25-.37.1-.18.24.04.36.05.19.02.37.03.56.04-.21.13-.43.23-.67.28Z"/>
  <path class="cls-1" d="M.66,35.32c.35.11.8-.07,1.05.35-.41.05-.79.03-1.05-.35Z"/>
  <path class="cls-1" d="M34.45.48c-.32-.38-.64.05-.96,0,.1-.1.18-.2.29-.28.43-.31.53-.26.67.29Z"/>
  <path class="cls-1" d="M32.75,1.04c-.14.55-.59.59-1.04.66.35-.21.63-.53,1.04-.66Z"/>
  <path class="cls-1" d="M12.74,22.2c-.54-.03-1.02-.24-1.49-.49.55,0,1.03.2,1.49.49Z"/>
  <path class="cls-1" d="M31.84,20.67c.19.06.32.18.35.37.04.23.2.19.34.2-.14.09-.27.18-.44.29-.09-.3-.17-.58-.25-.86Z"/>
  <path class="cls-1" d="M3.13,38.04c-.54,0-1.08,0-1.62,0,.54-.29,1.08-.2,1.62,0Z"/>
  <path class="cls-1" d="M24.18,30.12c.17-.44-.02-.96.29-1.38.05-.07.09-.12.17-.13-.06.45-.34.85-.28,1.32.02.15-.05.19-.18.19Z"/>
  <path class="cls-1" d="M12.92,57.49c.24-.02.5.05.69-.17.14.18.07.36.09.52-.25-.13-.59-.08-.77-.35Z"/>
  <path class="cls-1" d="M1.16,43.14c.39.09.38.48.55.74-.51,0-.45-.43-.55-.74Z"/>
  <path class="cls-1" d="M12.28,16.07c-.16-.43.06-.8.49-.84-.16.28-.33.56-.49.84Z"/>
  <path class="cls-1" d="M59.37,18.68c-.27-.33-.42-.72-.56-1.11.39.27.53.66.56,1.11Z"/>
  <path class="cls-1" d="M31.27,24.73c-.27-.15-.57-.08-.86-.09q.41-.52.86.09Z"/>
  <path class="cls-1" d="M14.18,14.09c.22-.35.53-.58.94-.66-.24.32-.53.58-.94.66Z"/>
  <path class="cls-1" d="M21.61,24.11c.03.44.11.88-.34,1.18.03-.42.15-.81.34-1.18Z"/>
  <path class="cls-1" d="M9.34,23.12c.34.29.28.53-.2.76.04-.26.05-.53.2-.76Z"/>
  <path class="cls-1" d="M45.79,37.49c-.33.28-.69.51-1.14.54.33-.28.69-.52,1.14-.54Z"/>
  <path class="cls-1" d="M19.37,38.24c-.38.48-.92.36-1.43.36.48-.12.95-.24,1.43-.36Z"/>
  <path class="cls-1" d="M25.79,25.39c-.36-.02-.78.14-.96-.36.36.02.67.15.96.36Z"/>
  <path class="cls-1" d="M27.93,2.01c0,.3-.19.53-.29.8-.06.17-.17.14-.27.01.13-.31.29-.59.56-.81Z"/>
  <path class="cls-1" d="M15.41,35.98c.34-.23.67-.49,1.13-.38-.36.17-.71.4-1.13.38Z"/>
  <path class="cls-1" d="M35.78,19.35c.13-.49.59-.44.94-.56-.29.22-.55.5-.94.56Z"/>
  <path class="cls-1" d="M33.14,20.87c.18-.43.56-.52.96-.57-.29.25-.61.42-.96.57Z"/>
  <path class="cls-1" d="M34.84,39.57c-.29.38-.69.1-1.03.16-.15.02-.39.13-.46-.16.5.18,1,.02,1.5,0Z"/>
  <path class="cls-1" d="M9.09,10.97c.03.35-.26.61-.69.64.19-.25.42-.47.69-.64Z"/>
  <path class="cls-1" d="M23.13,10.65c0,.42,0,.84,0,1.26-.29-.42-.29-.84,0-1.26Z"/>
  <path class="cls-1" d="M3.13,43.99c.69-.2,1.39-.04,2.09-.08-.69.26-1.39.11-2.09.08Z"/>
  <path class="cls-1" d="M22.08,32.1c-.1-.42.18-.66.78-.66-.28.2-.59.36-.78.66Z"/>
  <path class="cls-1" d="M46.93,31.46c-.05-.46.02-.89.36-1.24-.02.44-.22.83-.36,1.24Z"/>
  <path class="cls-1" d="M37.29,20.88c-.19.41-.56.5-.96.54.3-.22.6-.44.96-.54Z"/>
  <path class="cls-1" d="M38.63,11.53c.33.3.12.69.17,1.04-.24-.32-.25-.67-.17-1.04Z"/>
  <path class="cls-1" d="M35.98,49.1c0-.17,0-.35,0-.52-.02-.27.1-.37.36-.34-.07.31-.19.59-.35.86Z"/>
  <path class="cls-1" d="M38.82,31.24c-.34-.11-.77-.02-.96-.44.36.06.69.19.96.44Z"/>
  <path class="cls-1" d="M21.33,33.05c-.04-.27.32-.78.59-.85-.12.34-.37.59-.59.85Z"/>
  <path class="cls-1" d="M35.77,57.68c-.22-.04-.17-.22-.17-.36,0-.32,0-.64,0-.96.11.43.25.86.18,1.32Z"/>
  <path class="cls-1" d="M35.79,59.86c0-.67,0-1.34,0-2.01.15.67.15,1.34,0,2.01Z"/>
  <path class="cls-1" d="M36.34,29.93c-.45,0-.58-.26-.55-.66.21.2.42.39.55.66Z"/>
  <path class="cls-1" d="M38.61,5.4c.34.27.5.59.3,1.02-.03-.36-.32-.64-.3-1.02Z"/>
  <path class="cls-1" d="M34.83,1.62c-.31-.25-.4-.58-.36-.96.24.27.32.61.36.96Z"/>
  <path class="cls-1" d="M17.3,38.61c-.23,0-.47-.03-.69.01-.27.05-.37-.1-.45-.3.38.11.79.1,1.14.29Z"/>
  <path class="cls-1" d="M57.68,43.6c.43-.24.71.12,1.03.28-.37.02-.7-.13-1.03-.28Z"/>
  <path class="cls-1" d="M22.95,6.9c.08-.38.15-.76.55-.94-.11.36-.29.67-.55.94Z"/>
  <path class="cls-1" d="M42.48,45.61c-.52.31-1.06.21-1.6.07.53.02,1.07.02,1.6-.07Z"/>
  <path class="cls-1" d="M48.41,25.22c.44-.05.62.25.76.59-.31-.13-.56-.32-.76-.59Z"/>
  <path class="cls-1" d="M35.22,62.79c.12-.38.09-.81.36-1.15-.1.39.02.84-.36,1.15Z"/>
  <path class="cls-1" d="M47.67,45.23c-.07.27-.29.16-.45.17-.26.02-.52,0-.78,0,.4-.12.81-.22,1.23-.17Z"/>
  <path class="cls-1" d="M45.78,33.31c.2-.31.44-.57.76-.74-.1.41-.37.63-.76.74Z"/>
  <path class="cls-1" d="M43.91,4.44c-.33-.17-.61-.37-.66-.77.35.15.47.49.66.77Z"/>
  <path class="cls-1" d="M58.33,48.81c-.18-.6-.05-1.21-.08-1.81.2.6.05,1.21.08,1.81Z"/>
  <path class="cls-1" d="M35.6,56.35c-.23-.03-.19-.21-.19-.36,0-.32,0-.65,0-.97.15.43.13.89.19,1.33Z"/>
  <path class="cls-1" d="M53.27,55.61c-.03-.35.22-.55.43-.76-.07.29-.06.64-.43.76Z"/>
  <path class="cls-1" d="M37.28,27.68c.32.14.59.33.58.73-.27-.18-.46-.43-.58-.73Z"/>
  <path class="cls-1" d="M36.53,12.55c-.05-.03-.14-.06-.14-.09,0-.47-.14-.94.07-1.4-.02.5-.02,1,.08,1.49Z"/>
  <path class="cls-1" d="M51.17,44.77c-.57.13-1.14.12-1.71,0,.57,0,1.14,0,1.71,0Z"/>
  <path class="cls-1" d="M53.9,35.86c.5-.17,1.02-.04,1.53-.07-.5.15-1.01.16-1.53.07Z"/>
  <path class="cls-1" d="M49.93,14.83c.42-.03.6.25.76.57-.27-.17-.54-.33-.76-.57Z"/>
  <path class="cls-1" d="M37.11,18.59c.17-.28.33-.57.73-.55-.14.32-.44.43-.73.55Z"/>
  <path class="cls-1" d="M62.23,31.62c-.24-.01-.2-.19-.2-.34,0-.36,0-.71,0-1.07.15.13.11.31.09.47-.03.32.03.63.11.94Z"/>
  <path class="cls-1" d="M16.16,12.38c-.08-.46.2-.56.57-.57-.17.21-.33.42-.57.57Z"/>
  <path class="cls-1" d="M26.38,49.49c.11.52.11,1.04,0,1.56,0-.52,0-1.04,0-1.56Z"/>
  <path class="cls-1" d="M24.66,3.72c0-.33-.1-.7.39-.78-.08.29-.24.53-.39.78Z"/>
  <path class="cls-1" d="M45.23,45.4c-.54,0-1.08,0-1.63,0,.54-.13,1.08-.16,1.63,0Z"/>
  <path class="cls-1" d="M58.72,37.97c-.42.08-.85.22-1.24-.1.41.13.83.05,1.24.1Z"/>
  <path class="cls-1" d="M6.14,38.32c-.5.17-1,.17-1.5,0,.5,0,1,0,1.5,0Z"/>
  <path class="cls-1" d="M40.52,2.37c-.27-.1-.75.28-.77-.36.26.12.51.24.77.36Z"/>
  <path class="cls-1" d="M9.01,38.03c-.52,0-1.04,0-1.56,0,.52-.14,1.04-.17,1.56,0Z"/>
  <path class="cls-1" d="M23.9,5.24c-.02-.33-.07-.68.39-.78-.09.28-.22.54-.39.78Z"/>
  <path class="cls-1" d="M53.91,53.63c0-.24-.31-.55.17-.67.05.25-.06.46-.17.67Z"/>
  <path class="cls-1" d="M27.26,25.94c-.38.07-.67-.06-.92-.35.34.04.62.21.92.35Z"/>
  <path class="cls-1" d="M2.01,35.61c.26-.37.6-.21.93-.13-.31.04-.62.09-.93.13Z"/>
  <path class="cls-1" d="M61.82,41.25c-.38-.26-.15-.41.09-.57.08.21-.04.38-.09.57Z"/>
  <path class="cls-1" d="M12.77,15.23c-.01-.38.27-.48.56-.58-.15.23-.34.41-.56.58Z"/>
  <path class="cls-1" d="M38.79,12.57c.1,0,.18.03.23.12.03.06.16.08.1.17-.02.03-.14,0-.21,0-.06-.08-.13-.16-.11-.28Z"/>
  <path class="cls-1" d="M19.81,61.85c.16-.02.31-.04.28.2-.12-.03-.21-.1-.28-.2Z"/>
  <path class="cls-1" d="M6.64,51.64c.14.01.32,0,.18.23-.07-.07-.17-.11-.18-.23Z"/>
  <path class="cls-1" d="M16.27,16.01c.08.2-.07.21-.2.23.01-.12.12-.17.2-.23Z"/>
  <path class="cls-1" d="M39.2,31.62c-.14.01-.21-.05-.2-.19.12,0,.2.06.2.19Z"/>
  <path class="cls-1" d="M20.09,62.04c.15-.04.21.03.2.18-.1-.03-.17-.08-.2-.18Z"/>
  <path class="cls-1" d="M20.29,62.22c.13-.01.2.04.2.17-.09-.04-.16-.08-.2-.17Z"/>
  <path class="cls-1" d="M45.21,51.92s.08.03.12.04c0,.01,0,.03-.01.03-.08.04-.14,0-.19-.05.02-.01.05-.02.08-.02Z"/>
  <path class="cls-1" d="M39,31.43c-.14,0-.2-.06-.19-.2.06.07.13.13.19.2Z"/>
  <path class="cls-1" d="M9.75,38.32c-.08,0-.15,0-.19-.08.08-.03.16-.04.19.08Z"/>
  <path class="cls-1" d="M12.11,16.34s.01-.06.04-.07c-.01.02-.03.05-.04.07Z"/>
  <path class="cls-1" d="M35.78,29.27s-.06-.08-.09-.12c.03.04.06.08.09.12Z"/>
  <path class="cls-1" d="M24.09,30.32s.05-.07.07-.1c.02.06-.02.08-.07.1Z"/>
  <path class="cls-1" d="M61.93,40.6s.05-.07.08-.1c.01.06-.03.09-.08.1Z"/>
</svg>