<?xml version="1.0" standalone="no"?>
<!DOCTYPE svg PUBLIC "-//W3C//DTD SVG 20010904//EN"
 "http://www.w3.org/TR/2001/REC-SVG-20010904/DTD/svg10.dtd">
<svg version="1.0" xmlns="http://www.w3.org/2000/svg"
 width="150.000000pt" height="150.000000pt" viewBox="0 0 150.000000 150.000000"
 preserveAspectRatio="xMidYMid meet">
<metadata>
Created by potrace 1.16, written by Peter Selinger 2001-2019
</metadata>
<g transform="translate(0.000000,150.000000) scale(0.100000,-0.100000)"
fill="#C0282E" stroke="none">
<path d="M768 1447 c-26 -22 -26 -23 -23 -132 2 -60 6 -118 10 -128 4 -10 2
-38 -5 -62 -10 -36 -10 -54 0 -89 l12 -43 64 35 c71 40 75 49 48 123 -10 29
-13 61 -10 94 5 39 0 68 -22 134 -16 47 -33 86 -38 88 -5 1 -21 -8 -36 -20z"/>
<path d="M584 1445 c-10 -8 -31 -15 -46 -15 -14 0 -39 -10 -55 -23 -15 -13
-42 -29 -60 -36 -17 -7 -41 -24 -54 -37 -12 -13 -40 -29 -61 -34 -29 -8 -43
-20 -57 -48 -11 -20 -29 -43 -40 -50 -11 -6 -27 -27 -35 -45 -7 -19 -25 -45
-40 -60 -14 -14 -26 -37 -26 -50 0 -13 -11 -38 -25 -57 -14 -19 -25 -46 -25
-61 0 -22 8 -31 45 -49 50 -24 60 -22 68 17 12 60 56 142 84 157 16 8 39 32
51 55 13 23 28 41 33 41 5 0 28 17 52 39 23 21 61 48 84 59 23 12 50 34 61 49
20 28 82 148 82 158 0 9 -16 5 -36 -10z"/>
<path d="M880 1452 c0 -4 11 -41 25 -82 23 -67 31 -78 69 -102 24 -16 53 -28
63 -28 19 0 73 -44 73 -60 0 -4 22 -21 50 -38 30 -19 56 -45 66 -65 14 -30 23
-35 62 -41 102 -14 114 -2 62 57 -16 19 -30 42 -30 51 0 22 -119 142 -150 151
-13 4 -37 21 -51 36 -15 16 -41 32 -57 35 -17 3 -41 17 -53 30 -12 13 -32 24
-45 24 -12 0 -27 6 -33 14 -13 15 -51 28 -51 18z"/>
<path d="M612 1335 c-56 -101 -60 -120 -37 -165 10 -20 12 -36 6 -52 -5 -13
-10 -52 -12 -86 l-4 -64 48 -18 47 -18 20 37 c17 35 20 63 20 206 0 116 -16
255 -30 255 -3 0 -30 -43 -58 -95z"/>
<path d="M927 1223 c-14 -4 -17 -10 -12 -26 3 -12 11 -40 16 -62 6 -22 23 -53
38 -70 15 -16 40 -47 55 -67 15 -21 32 -38 37 -38 6 0 31 -18 56 -40 66 -58
73 -54 73 34 0 59 -4 79 -23 107 -12 18 -32 36 -45 39 -12 3 -31 20 -42 38
-11 18 -32 37 -48 43 -37 13 -44 17 -67 32 -11 8 -28 12 -38 10z"/>
<path d="M455 1181 c-11 -4 -27 -21 -35 -37 -9 -16 -33 -40 -53 -53 -37 -25
-48 -53 -24 -68 24 -16 122 -31 145 -22 18 7 22 16 22 51 0 23 5 56 12 74 18
52 -12 76 -67 55z"/>
<path d="M865 994 c-22 -14 -47 -29 -55 -33 -12 -8 -10 -13 13 -31 15 -12 37
-40 48 -61 12 -24 31 -44 47 -50 15 -5 43 -28 62 -50 27 -31 43 -41 69 -42 32
-2 34 1 52 50 l17 52 -28 39 c-15 21 -41 44 -57 51 -17 7 -44 32 -61 57 -36
50 -50 52 -107 18z"/>
<path d="M250 964 c-6 -14 -10 -29 -10 -33 0 -5 -7 -14 -15 -21 -40 -34 11
-79 70 -61 17 4 45 6 63 3 26 -3 40 3 77 33 25 20 45 40 45 45 0 5 -17 12 -37
15 -52 8 -111 21 -151 33 -30 10 -34 9 -42 -14z"/>
<path d="M1238 916 l-3 -64 58 -5 c45 -4 69 -1 103 14 50 22 53 36 23 85 -21
34 -21 34 -99 34 l-78 0 -4 -64z"/>
<path d="M512 897 c-7 -19 -23 -39 -36 -45 -42 -19 -46 -41 -20 -101 l24 -54
44 39 c24 22 51 55 59 74 8 20 27 42 41 49 14 8 26 17 26 21 0 7 -103 50 -119
50 -4 0 -12 -15 -19 -33z"/>
<path d="M715 893 c-9 -37 -58 -104 -122 -168 -29 -29 -53 -56 -53 -61 0 -5
70 -10 155 -10 86 -1 174 -7 198 -13 52 -15 97 -2 97 28 0 20 -86 110 -106
111 -15 0 -50 41 -58 67 -5 16 -83 73 -101 73 -2 0 -6 -12 -10 -27z"/>
<path d="M43 807 c-7 -14 -8 -46 -5 -78 l7 -54 65 -8 c36 -4 77 -5 92 -3 14 3
39 -1 55 -8 23 -11 39 -12 83 -2 30 6 63 16 73 22 17 10 17 12 0 58 -11 31
-26 51 -40 57 -12 4 -66 9 -120 10 -54 1 -116 8 -138 15 -54 18 -60 18 -72 -9z"/>
<path d="M1147 755 c-15 -36 -27 -67 -27 -69 0 -5 128 -17 165 -16 66 3 81 2
117 -5 33 -7 38 -5 51 22 13 24 13 32 1 53 -7 14 -13 32 -14 42 0 14 -11 15
-98 11 -79 -5 -104 -2 -129 11 -18 9 -34 16 -36 16 -2 0 -15 -29 -30 -65z"/>
<path d="M1111 623 c-36 -3 -66 -12 -92 -30 -31 -20 -46 -24 -74 -19 l-35 7 0
-39 0 -39 153 0 c153 -1 246 -6 302 -18 44 -9 64 11 72 72 l6 52 -54 3 c-30 2
-69 -1 -86 -5 -22 -5 -50 -3 -85 8 -28 8 -52 14 -52 13 -1 -1 -25 -3 -55 -5z"/>
<path d="M59 599 c-14 -14 -16 -25 -8 -60 6 -23 12 -46 15 -51 9 -14 81 -9
118 8 30 15 53 16 192 7 88 -6 165 -8 172 -6 7 3 12 23 12 48 0 38 -3 44 -27
52 -16 6 -71 9 -124 7 -54 -1 -150 1 -215 4 -104 7 -121 5 -135 -9z"/>
<path d="M622 318 l0 -268 26 -6 c15 -3 43 -10 62 -15 45 -13 116 3 124 29 6
20 7 58 6 194 0 54 4 107 10 117 13 25 13 198 0 206 -5 3 -58 7 -119 8 l-109
3 0 -268z"/>
<path d="M1139 456 c-3 -3 -52 -8 -110 -12 -57 -3 -107 -8 -111 -12 -3 -4 -9
-23 -13 -43 l-7 -36 75 -6 c56 -5 85 -3 112 9 20 8 40 12 46 8 5 -3 31 -6 57
-6 26 1 57 -6 69 -14 43 -28 113 -5 99 33 -3 8 -6 25 -6 38 0 22 -5 24 -67 28
-38 3 -84 8 -103 12 -19 4 -38 4 -41 1z"/>
<path d="M305 432 c-2 -3 -42 -5 -89 -6 -46 -1 -88 -4 -91 -8 -13 -12 59 -119
84 -125 13 -3 59 -1 103 6 43 7 119 11 169 10 97 -2 115 6 103 46 -3 11 -8 32
-11 46 -4 23 -10 27 -41 28 -21 0 -79 2 -130 4 -51 1 -95 1 -97 -1z"/>
<path d="M1010 300 l-105 -5 1 -70 c0 -38 -3 -78 -8 -87 -6 -12 -3 -28 6 -47
14 -27 18 -28 63 -23 26 3 68 16 92 29 24 12 54 23 65 23 27 0 122 95 131 131
4 16 1 30 -7 36 -17 14 -107 19 -238 13z"/>
<path d="M300 230 c0 -30 18 -60 36 -60 8 0 25 -10 37 -23 36 -37 128 -89 169
-95 l38 -5 0 70 c0 40 -5 76 -13 86 -14 20 -86 36 -194 44 -70 5 -73 4 -73
-17z"/>
</g>
</svg>
